<svg xmlns="http://www.w3.org/2000/svg" width="1000" height="1000" viewBox="0 0 72 72"><ellipse cx="36" cy="36" fill="#a57939" rx="19" ry="28"/><path fill="#6a462f" fill-rule="evenodd" d="M36.313 64c-.015 0-.02-.021-.005-.026c8.326-2.834 14.553-14.26 14.553-27.923c0-13.671-6.234-25.102-14.567-27.928c-.067-.023-.052-.123.019-.123C46.633 8 55 20.536 55 36s-8.367 28-18.687 28"/><g fill="#6a462f"><path fill-rule="evenodd" d="M36 61s-6-11.193-6-25c0-13.76 5.96-24.924 6-25c-.029.054-3 5.63-3 12.5c0 6.903 3 12.5 3 12.5s3 5.596 3 12.5S36 61 36 61"/><path d="m36 61l-.881.472a1 1 0 0 0 1.762 0zm0-50l.882.471a1 1 0 0 0-1.764-.943zm0 25l.881-.473zm-7 0c0 7.042 1.529 13.402 3.05 17.992a59.977 59.977 0 0 0 2.099 5.45a42.194 42.194 0 0 0 .895 1.886l.054.104l.014.028l.005.008v.003h.001L36 61q.881-.473.882-.472v-.001l-.003-.004l-.011-.021l-.046-.09a20.28 20.28 0 0 1-.183-.362a40.45 40.45 0 0 1-.663-1.421a58.017 58.017 0 0 1-2.027-5.266C32.471 48.904 31 42.764 31 36zm6.118-25.472C35.055 10.648 29 21.988 29 36h2c0-13.51 5.864-24.495 5.882-24.528zM34 23.5c0-3.297.714-6.299 1.439-8.493c.723-2.19 1.447-3.544 1.443-3.536l-1.764-.942c-.052.096-3.118 5.85-3.118 12.97zM36 36q.881-.473.882-.472l-.001-.001l-.004-.009a7.365 7.365 0 0 1-.109-.214c-.077-.156-.188-.39-.323-.693a28.498 28.498 0 0 1-.996-2.587C34.721 29.827 34 26.812 34 23.5h-2c0 3.59.78 6.825 1.552 9.153a30.48 30.48 0 0 0 1.066 2.77a21.624 21.624 0 0 0 .46.97l.03.056c.003.006.005.012.008.015l.002.005v.002h.001zm0 0l-.882.472h.001l.005.01a7.365 7.365 0 0 1 .108.213c.077.156.188.39.323.693c.27.607.633 1.492.996 2.587c.728 2.197 1.45 5.212 1.45 8.525h2c0-3.591-.78-6.826-1.552-9.154a30.492 30.492 0 0 0-1.066-2.77a21.624 21.624 0 0 0-.49-1.025l-.008-.016l-.002-.005v-.002h-.001zm2 12.5c0 3.312-.721 6.327-1.45 8.524a28.498 28.498 0 0 1-.995 2.587a19.624 19.624 0 0 1-.432.907l-.004.009l.88.473l.883.472v-.003l.003-.005l.009-.015l.029-.056c.024-.048.06-.117.103-.205c.087-.178.21-.435.356-.764a30.48 30.48 0 0 0 1.067-2.77C39.221 55.324 40 52.09 40 48.5z"/></g><g fill="none" stroke="#000" stroke-width="2"><ellipse cx="36" cy="36" rx="19" ry="28"/><path stroke-linecap="round" stroke-linejoin="round" d="M36 36s-3-5.596-3-12.5S36 11 36 11m0 25s3 5.596 3 12.5S36 61 36 61"/></g></svg>